<svg width="175" height="133" viewBox="0 0 175 133" fill="none" xmlns="http://www.w3.org/2000/svg">
<path d="M85.0009 82.1932C95.7847 69.696 94.3957 50.823 81.8985 40.0391C69.4013 29.2553 50.5283 30.6443 39.7445 43.1415C28.9606 55.6387 30.3496 74.5117 42.8468 85.2955C55.344 96.0794 74.217 94.6904 85.0009 82.1932Z" fill="#FAAF40"/>
<path d="M62.379 24.686C60.298 24.686 58.612 23 58.612 20.919V4.52798C58.612 2.44698 60.298 0.760986 62.379 0.760986C64.46 0.760986 66.146 2.44698 66.146 4.52798V20.919C66.146 23 64.46 24.686 62.379 24.686Z" fill="#FAAF40"/>
<path d="M20.206 66.858H3.815C1.734 66.858 0.0479736 65.172 0.0479736 63.091C0.0479736 61.01 1.734 59.324 3.815 59.324H20.206C22.287 59.324 23.973 61.01 23.973 63.091C23.973 65.172 22.287 66.858 20.206 66.858Z" fill="#FAAF40"/>
<path d="M32.559 37.0379C31.595 37.0379 30.631 36.67 29.896 35.934L18.306 24.3439C16.835 22.8739 16.835 20.4879 18.306 19.0169C19.778 17.5459 22.161 17.5459 23.633 19.0169L35.223 30.6069C36.694 32.0769 36.694 34.463 35.223 35.934C34.486 36.67 33.522 37.0379 32.559 37.0379Z" fill="#FAAF40"/>
<path d="M20.968 108.268C20.004 108.268 19.04 107.9 18.305 107.164C16.834 105.694 16.834 103.308 18.305 101.837L29.895 90.247C31.366 88.776 33.75 88.776 35.222 90.247C36.693 91.717 36.693 94.103 35.222 95.574L23.632 107.164C22.896 107.901 21.932 108.268 20.968 108.268Z" fill="#FAAF40"/>
<path d="M92.199 37.0379C91.235 37.0379 90.271 36.67 89.536 35.934C88.065 34.464 88.065 32.0789 89.536 30.6069L101.125 19.0169C102.594 17.5459 104.98 17.5459 106.452 19.0169C107.923 20.4869 107.923 22.8719 106.452 24.3439L94.863 35.934C94.128 36.67 93.163 37.0379 92.199 37.0379Z" fill="#FAAF40"/>
<path d="M145.587 74.298C145.574 74.298 145.562 74.3 145.549 74.3C145.554 74.047 145.587 73.801 145.587 73.547C145.587 53.524 129.355 37.292 109.332 37.292C89.309 37.292 73.077 53.524 73.077 73.547C73.077 73.571 73.081 73.593 73.081 73.617C57.375 74.346 44.855 87.273 44.855 103.16C44.855 119.515 58.113 132.773 74.468 132.773H145.587C161.735 132.773 174.825 119.683 174.825 103.535C174.825 87.388 161.735 74.298 145.587 74.298Z" fill="#D0D0D0"/>
</svg>
