<svg width="161" height="134" viewBox="0 0 161 134" fill="none" xmlns="http://www.w3.org/2000/svg">
<path d="M136.361 66.843C119.855 66.843 106.475 53.462 106.475 36.957C106.475 20.451 119.856 7.07101 136.361 7.07101C138.996 7.07101 141.537 7.446 143.971 8.086C136.914 3.012 128.283 -0.00900269 118.929 -0.00900269C95.186 -0.00900269 75.939 19.238 75.939 42.981C75.939 66.724 95.186 85.971 118.929 85.971C138.523 85.971 155.023 72.85 160.203 54.925C154.746 62.151 146.112 66.843 136.361 66.843Z" fill="#FAAF40"/>
<path d="M101.364 75.2C101.351 75.2 101.339 75.202 101.326 75.202C101.331 74.949 101.364 74.703 101.364 74.449C101.364 54.426 85.132 38.194 65.109 38.194C45.086 38.194 28.854 54.426 28.854 74.449C28.854 74.473 28.858 74.495 28.858 74.519C13.152 75.248 0.632019 88.175 0.632019 104.062C0.632019 120.417 13.89 133.675 30.245 133.675H101.364C117.512 133.675 130.602 120.585 130.602 104.437C130.601 88.29 117.511 75.2 101.364 75.2Z" fill="#D0D0D0"/>
</svg>
