<svg width="164" height="129" viewBox="0 0 164 129" fill="none" xmlns="http://www.w3.org/2000/svg">
<path d="M101.464 37.959C101.451 37.959 101.439 37.961 101.426 37.961C101.431 37.708 101.464 37.462 101.464 37.208C101.464 17.185 85.232 0.953003 65.209 0.953003C45.186 0.953003 28.954 17.185 28.954 37.208C28.954 37.232 28.958 37.254 28.958 37.278C13.252 38.007 0.731995 50.934 0.731995 66.821C0.731995 83.176 13.99 96.434 30.345 96.434H101.464C117.612 96.434 130.702 83.344 130.702 67.196C130.701 51.049 117.611 37.959 101.464 37.959Z" fill="#D0D0D0"/>
<path d="M134.59 70.065C134.577 70.065 134.565 70.067 134.552 70.067C134.557 69.814 134.59 69.568 134.59 69.314C134.59 49.291 118.358 33.059 98.335 33.059C78.312 33.059 62.08 49.291 62.08 69.314C62.08 69.338 62.084 69.36 62.084 69.384C46.377 70.113 33.858 83.041 33.858 98.927C33.858 115.282 47.116 128.54 63.471 128.54H134.59C150.738 128.54 163.828 115.45 163.828 99.302C163.827 83.155 150.737 70.065 134.59 70.065Z" fill="#AAAAAA"/>
</svg>
