<svg width="131" height="129" viewBox="0 0 131 129" fill="none" xmlns="http://www.w3.org/2000/svg">
<path d="M101.64 37.607C101.627 37.607 101.615 37.609 101.602 37.609C101.607 37.356 101.64 37.11 101.64 36.856C101.64 16.833 85.408 0.601013 65.385 0.601013C45.362 0.601013 29.13 16.833 29.13 36.856C29.13 36.88 29.134 36.902 29.134 36.926C13.428 37.655 0.90802 50.582 0.90802 66.469C0.90802 82.824 14.166 96.082 30.521 96.082H101.64C117.788 96.082 130.878 82.992 130.878 66.844C130.877 50.697 117.787 37.607 101.64 37.607Z" fill="#D0D0D0"/>
<path d="M14.386 128.895C13.704 128.895 13.014 128.711 12.393 128.322C10.628 127.22 10.093 124.896 11.195 123.132L40.463 76.302C41.567 74.536 43.89 74 45.654 75.104C47.419 76.206 47.954 78.53 46.852 80.294L17.584 127.124C16.869 128.269 15.641 128.895 14.386 128.895Z" fill="#42BFEC"/>
<path d="M75.061 128.895C74.379 128.895 73.689 128.71 73.068 128.322C71.304 127.22 70.768 124.896 71.87 123.132L92.614 89.942C93.718 88.174 96.044 87.644 97.804 88.744C99.567 89.846 100.104 92.17 99.003 93.935L78.258 127.125C77.544 128.269 76.317 128.895 75.061 128.895Z" fill="#42BFEC"/>
<path d="M43.654 128.895C42.98 128.895 42.295 128.714 41.679 128.333C39.91 127.24 39.36 124.919 40.453 123.148L81.429 56.768C82.523 55 84.84 54.45 86.613 55.542C88.382 56.634 88.932 58.956 87.839 60.726L46.863 127.105C46.151 128.26 44.917 128.895 43.654 128.895Z" fill="#42BFEC"/>
</svg>
