<svg width="131" height="145" viewBox="0 0 131 145" fill="none" xmlns="http://www.w3.org/2000/svg">
<path d="M90.335 106.02L81.108 125.628C79.079 129.939 78.99 135.016 81.26 139.205C82.865 142.167 85.618 144.707 90.335 144.707C95.053 144.707 97.805 142.168 99.41 139.205C101.68 135.016 101.59 129.939 99.562 125.628L90.335 106.02Z" fill="#42BFEC"/>
<path d="M101.006 37.707C100.993 37.707 100.981 37.709 100.968 37.709C100.973 37.456 101.006 37.21 101.006 36.956C101.006 16.933 84.774 0.700989 64.751 0.700989C44.728 0.700989 28.496 16.933 28.496 36.956C28.496 36.98 28.499 37.002 28.499 37.026C12.793 37.755 0.27301 50.682 0.27301 66.569C0.27301 82.924 13.531 96.182 29.886 96.182H101.005C117.153 96.182 130.243 83.092 130.243 66.944C130.243 50.797 117.153 37.707 101.006 37.707Z" fill="#AAAAAA"/>
<path d="M90.335 87.311H54.305L72.573 54.833H54.305L28.423 101.452H56.334L45.17 143.64L90.335 87.311Z" fill="#FAAF40"/>
</svg>
