<svg width="131" height="135" viewBox="0 0 131 135" fill="none" xmlns="http://www.w3.org/2000/svg">
<path d="M101.158 37.707C101.145 37.707 101.133 37.709 101.12 37.709C101.125 37.456 101.158 37.21 101.158 36.956C101.158 16.933 84.926 0.700989 64.903 0.700989C44.88 0.700989 28.648 16.933 28.648 36.956C28.648 36.98 28.652 37.002 28.652 37.026C12.946 37.755 0.426025 50.682 0.426025 66.569C0.426025 82.924 13.684 96.182 30.039 96.182H101.158C117.306 96.182 130.396 83.092 130.396 66.944C130.395 50.797 117.305 37.707 101.158 37.707Z" fill="#42BFEC"/>
<path d="M43.316 101.231L49.118 111.507L60.684 113.849L52.704 122.543L54.05 134.267L43.316 129.364L32.582 134.267L33.928 122.543L25.948 113.849L37.514 111.507L43.316 101.231Z" fill="#ADE0F3"/>
<path d="M83.468 64.226L91.079 77.706L106.252 80.779L95.783 92.184L97.55 107.564L83.468 101.131L69.387 107.564L71.153 92.184L60.684 80.779L75.857 77.706L83.468 64.226Z" fill="#ADE0F3"/>
</svg>
