<svg width="178" height="149" viewBox="0 0 178 149" fill="none" xmlns="http://www.w3.org/2000/svg">
<path d="M125.93 37.614C125.917 37.614 125.905 37.616 125.892 37.616C125.897 37.363 125.93 37.117 125.93 36.863C125.93 16.84 109.698 0.607971 89.675 0.607971C69.652 0.607971 53.42 16.84 53.42 36.863C53.42 36.887 53.424 36.909 53.424 36.933C37.718 37.662 25.198 50.589 25.198 66.476C25.198 82.831 38.456 96.089 54.811 96.089H125.93C142.077 96.089 155.168 82.999 155.168 66.852C155.167 50.704 142.077 37.614 125.93 37.614Z" fill="#42BFEC"/>
<path d="M134.714 114.026H45.412C43.332 114.026 41.645 112.339 41.645 110.259C41.645 108.179 43.332 106.492 45.412 106.492H134.714C136.794 106.492 138.481 108.179 138.481 110.259C138.481 112.339 136.793 114.026 134.714 114.026Z" fill="#ADE0F3"/>
<path d="M173.307 114.026H154.34C152.26 114.026 150.573 112.339 150.573 110.259C150.573 108.179 152.26 106.492 154.34 106.492H173.307C175.387 106.492 177.074 108.179 177.074 110.259C177.074 112.339 175.387 114.026 173.307 114.026Z" fill="#ADE0F3"/>
<path d="M169.577 148.872H29.848C27.768 148.872 26.081 147.185 26.081 145.105C26.081 143.025 27.768 141.338 29.848 141.338H169.577C171.657 141.338 173.344 143.025 173.344 145.105C173.344 147.185 171.657 148.872 169.577 148.872Z" fill="#ADE0F3"/>
<path d="M109.36 131.448H4.52197C2.44197 131.448 0.755005 129.761 0.755005 127.681C0.755005 125.601 2.44197 123.914 4.52197 123.914H109.36C111.44 123.914 113.127 125.601 113.127 127.681C113.127 129.76 111.44 131.448 109.36 131.448Z" fill="#ADE0F3"/>
<path d="M161.472 131.448H130.792C128.712 131.448 127.025 129.761 127.025 127.681C127.025 125.601 128.712 123.914 130.792 123.914H161.472C163.552 123.914 165.239 125.601 165.239 127.681C165.239 129.76 163.552 131.448 161.472 131.448Z" fill="#ADE0F3"/>
</svg>
