<svg width="126" height="125" viewBox="0 0 126 125" fill="none" xmlns="http://www.w3.org/2000/svg">
<path d="M91.8073 68.905C95.6484 52.8523 85.7489 36.7251 69.6962 32.884C53.6434 29.0429 37.5163 38.9424 33.6752 54.9951C29.834 71.0479 39.7335 87.175 55.7863 91.0162C71.839 94.8573 87.9662 84.9578 91.8073 68.905Z" fill="#FAAF40"/>
<path d="M62.755 23.957C60.674 23.957 58.988 22.271 58.988 20.19V3.79898C58.988 1.71798 60.674 0.0319824 62.755 0.0319824C64.836 0.0319824 66.522 1.71798 66.522 3.79898V20.19C66.522 22.271 64.836 23.957 62.755 23.957Z" fill="#FAAF40"/>
<path d="M62.755 124.691C60.674 124.691 58.988 123.005 58.988 120.924V104.533C58.988 102.452 60.674 100.766 62.755 100.766C64.836 100.766 66.522 102.452 66.522 104.533V120.924C66.522 123.005 64.836 124.691 62.755 124.691Z" fill="#FAAF40"/>
<path d="M121.317 66.129H104.926C102.845 66.129 101.159 64.443 101.159 62.362C101.159 60.281 102.845 58.595 104.926 58.595H121.317C123.398 58.595 125.084 60.281 125.084 62.362C125.084 64.443 123.398 66.129 121.317 66.129Z" fill="#FAAF40"/>
<path d="M4.19199 66.129H20.583C22.664 66.129 24.35 64.443 24.35 62.362C24.35 60.281 22.664 58.595 20.583 58.595H4.19199C2.11099 58.595 0.424988 60.281 0.424988 62.362C0.424988 64.443 2.11099 66.129 4.19199 66.129Z" fill="#FAAF40"/>
<path d="M32.935 36.309C31.971 36.309 31.007 35.941 30.272 35.205L18.682 23.615C17.211 22.145 17.211 19.7589 18.682 18.2879C20.153 16.8169 22.537 16.8169 24.009 18.2879L35.599 29.878C37.07 31.348 37.07 33.7339 35.599 35.205C34.862 35.941 33.898 36.309 32.935 36.309Z" fill="#FAAF40"/>
<path d="M104.164 107.539C103.2 107.539 102.236 107.171 101.501 106.435L89.912 94.845C88.441 93.374 88.441 90.989 89.912 89.518C91.383 88.047 93.767 88.047 95.239 89.518L106.828 101.108C108.299 102.579 108.299 104.964 106.828 106.435C106.091 107.171 105.128 107.539 104.164 107.539Z" fill="#FAAF40"/>
<path d="M21.345 107.539C20.381 107.539 19.417 107.171 18.682 106.435C17.211 104.965 17.211 102.579 18.682 101.108L30.272 89.518C31.743 88.047 34.127 88.047 35.599 89.518C37.07 90.988 37.07 93.374 35.599 94.845L24.009 106.435C23.272 107.171 22.308 107.539 21.345 107.539Z" fill="#FAAF40"/>
<path d="M92.575 36.309C91.611 36.309 90.647 35.941 89.912 35.205C88.441 33.735 88.441 31.35 89.912 29.878L101.501 18.2879C102.97 16.8169 105.356 16.8169 106.828 18.2879C108.299 19.7579 108.299 22.143 106.828 23.615L95.239 35.205C94.504 35.941 93.539 36.309 92.575 36.309Z" fill="#FAAF40"/>
</svg>
